# xmcd
#
# Track frame offsets:
#	225
#	17904
#	38847
#	55785
#	76484
#	92766
#	108349
#	126682
#	144720
#	161742
#	180144
#	200072
#	215775
#	246628
#
# Disc length: 4440 seconds
#
# Revision: 1
# Processed by: cddbd v1.5.1PL2 Copyright (c) Steve Scherf et al.
# Submitted via: audiograbber 1.83.01
#
DISCID=d311550e
DTITLE=Pod Buda - Zal za ...
DYEAR=2005
DGENRE=
TTITLE0=Moje dwie ojczyzny
TTITLE1=Ani ust, ani sil
TTITLE2=Zal za Bulatem O.
TTITLE3=Ble, ble, ble
TTITLE4=Nasz pamietnik
TTITLE5=Bedzie lzej
TTITLE6=Zal za Agnieszke O.
TTITLE7=Jeszcze tyle nie wiem
TTITLE8=Nasze podroze
TTITLE9=Zal za Piotrem S.
TTITLE10=Przy tobie sama
TTITLE11=Nie patrz na to mila
TTITLE12=Jesc, pic, kochac
TTITLE13=DANE
EXTD=
EXTT0=
EXTT1=
EXTT2=
EXTT3=
EXTT4=
EXTT5=
EXTT6=
EXTT7=
EXTT8=
EXTT9=
EXTT10=
EXTT11=
EXTT12=
EXTT13=
PLAYORDER=
